<?xml version="1.0" encoding="UTF-8"?>
<!DOCTYPE svg PUBLIC "-//W3C//DTD SVG 1.1//EN" "http://www.w3.org/Graphics/SVG/1.1/DTD/svg11.dtd">
<svg xmlns="http://www.w3.org/2000/svg" style="background: transparent; background-color: transparent; color-scheme: light dark;" xmlns:xlink="http://www.w3.org/1999/xlink" version="1.1" width="1312px" height="522px" viewBox="0 0 1312 522"><defs><style>@keyframes ge-flow-animation-1uCjGPJ9pVjDuUZfB8nE {&#xa;  to {&#xa;    stroke-dashoffset: 0;&#xa;  }&#xa;}</style></defs><g><g data-cell-id="M7RFmJd14wfo8I6-3Kzt-0"><g data-cell-id="M7RFmJd14wfo8I6-3Kzt-1"><g data-cell-id="M7RFmJd14wfo8I6-3Kzt-2"><g transform="translate(0.5,0.5)"><rect x="112.09" y="0" width="1197.91" height="520" rx="78" ry="78" fill-opacity="0.4" fill="#dae8fc" stroke="#6c8ebf" stroke-opacity="0.4" pointer-events="all" style="fill: light-dark(rgb(218, 232, 252), rgb(29, 41, 59)); stroke: light-dark(rgb(108, 142, 191), rgb(92, 121, 163));"/></g></g><g data-cell-id="TklzGvad1GCZnjP5K8gf-0"><g transform="translate(0.5,0.5)"><path d="M 551.71 170.06 C 550.8 170.11 549.88 170.34 549.08 170.74 L 513.27 187.82 C 511.39 188.73 510.02 190.45 509.56 192.44 L 500.71 230.88 C 500.31 232.65 500.65 234.53 501.62 236.08 C 501.79 236.25 501.91 236.42 502.02 236.65 L 526.81 267.43 C 528.12 269.03 530.12 270 532.18 270 L 571.93 270 C 573.98 270 575.98 269.03 577.29 267.43 L 602.08 236.59 C 603.34 234.99 603.85 232.88 603.39 230.88 L 594.54 192.44 C 594.08 190.45 592.71 188.73 590.83 187.82 L 555.02 170.74 C 553.99 170.23 552.85 170 551.71 170.06 Z" fill="#ffffff" stroke="none" pointer-events="all" style="fill: light-dark(rgb(255, 255, 255), rgb(18, 18, 18));"/><path d="M 551.73 173.05 C 550.87 173.11 550.01 173.32 549.26 173.7 L 515.6 189.75 C 513.83 190.61 512.54 192.22 512.11 194.1 L 503.79 230.23 C 503.42 231.89 503.74 233.66 504.65 235.11 C 504.81 235.27 504.92 235.43 505.03 235.65 L 528.33 264.58 C 529.56 266.09 531.44 267 533.37 267 L 570.74 267 C 572.67 267 574.55 266.09 575.78 264.58 L 599.08 235.6 C 600.26 234.09 600.74 232.11 600.31 230.23 L 591.99 194.1 C 591.56 192.22 590.28 190.61 588.5 189.75 L 554.84 173.7 C 553.88 173.21 552.8 173 551.73 173.05 Z" fill="#2875e2" stroke="none" pointer-events="all" style="fill: light-dark(rgb(40, 117, 226), rgb(85, 151, 245));"/><path d="M 566.12 240.82 L 554.51 240.82 L 529.36 209.35 L 522.08 209.35 L 522.08 199.05 L 533.92 199.05 L 559.08 230.52 L 566.13 230.52 L 566.13 222.37 L 582.08 235.67 L 566.13 248.97 Z M 553.47 216.51 L 559.08 209.48 L 566.13 209.48 L 566.13 217.63 L 582.08 204.33 L 566.12 191.03 L 566.12 199.17 L 554.51 199.17 L 547.06 208.5 Z M 535.07 223.49 L 529.36 230.65 L 522.08 230.65 L 522.08 240.95 L 533.92 240.95 L 541.47 231.5 Z" fill="#ffffff" stroke="none" pointer-events="all" style="fill: light-dark(rgb(255, 255, 255), rgb(18, 18, 18));"/></g></g><g data-cell-id="TklzGvad1GCZnjP5K8gf-1"><g><rect x="487.08" y="290" width="130" height="30" fill="none" stroke="none" pointer-events="all"/></g><g><g><switch><foreignObject style="overflow: visible; text-align: left;" pointer-events="none" width="100%" height="100%" requiredFeatures="http://www.w3.org/TR/SVG11/feature#Extensibility"><div xmlns="http://www.w3.org/1999/xhtml" style="display: flex; align-items: unsafe center; justify-content: unsafe center; width: 128px; height: 1px; padding-top: 305px; margin-left: 488px;"><div style="box-sizing: border-box; font-size: 0; text-align: center; color: #000000; "><div style="display: inline-block; font-size: 12px; font-family: Helvetica; color: light-dark(#000000, #ffffff); line-height: 1.2; pointer-events: all; white-space: normal; word-wrap: normal; "><span style="font-size: 25px; color: light-dark(rgb(126, 166, 224), rgb(67, 102, 151));">HTTP Route</span></div></div></div></foreignObject><text x="552" y="309" fill="#000000" font-family="Helvetica" font-size="12px" text-anchor="middle" style="fill: light-dark(rgb(0, 0, 0), rgb(255, 255, 255));">HTTP Route</text></switch></g></g></g><g data-cell-id="TklzGvad1GCZnjP5K8gf-3"><g transform="translate(0.5,0.5)"><path d="M 600 219.5 L 646 219.5 L 686.16 219.5" fill="none" stroke="#6c8ebf" stroke-width="5" stroke-miterlimit="10" pointer-events="stroke" stroke-dasharray="8" style="stroke: light-dark(rgb(108, 142, 191), rgb(92, 121, 163)); animation: 500ms linear 0s infinite normal none running ge-flow-animation-1uCjGPJ9pVjDuUZfB8nE; stroke-dashoffset: 16;"/><path d="M 694.41 219.5 L 683.41 225 L 686.16 219.5 L 683.41 214 Z" fill="#6c8ebf" stroke="#6c8ebf" stroke-width="5" stroke-miterlimit="10" pointer-events="all" style="fill: light-dark(rgb(108, 142, 191), rgb(92, 121, 163)); stroke: light-dark(rgb(108, 142, 191), rgb(92, 121, 163));"/></g></g><g data-cell-id="TklzGvad1GCZnjP5K8gf-4"><g transform="translate(0.5,0.5)"><rect x="0" y="120" width="630" height="300" rx="45" ry="45" fill-opacity="0.3" fill="#e1d5e7" stroke="#9673a6" stroke-opacity="0.3" stroke-dasharray="3 3" pointer-events="all" style="fill: light-dark(rgb(225, 213, 231), rgb(57, 47, 63)); stroke: light-dark(rgb(150, 115, 166), rgb(149, 119, 163));"/></g></g><g data-cell-id="TklzGvad1GCZnjP5K8gf-6"><g><rect x="454.16" y="380" width="150" height="30" fill="none" stroke="none" pointer-events="all"/></g><g><g><switch><foreignObject style="overflow: visible; text-align: left;" pointer-events="none" width="100%" height="100%" requiredFeatures="http://www.w3.org/TR/SVG11/feature#Extensibility"><div xmlns="http://www.w3.org/1999/xhtml" style="display: flex; align-items: unsafe center; justify-content: unsafe center; width: 148px; height: 1px; padding-top: 395px; margin-left: 455px;"><div style="box-sizing: border-box; font-size: 0; text-align: center; color: #000000; "><div style="display: inline-block; font-size: 12px; font-family: Helvetica; color: light-dark(#000000, #ffffff); line-height: 1.2; pointer-events: all; white-space: normal; word-wrap: normal; "><span style="font-size: 25px; color: light-dark(rgb(181, 115, 157), rgb(166, 109, 145));">Gateway API</span></div></div></div></foreignObject><text x="529" y="399" fill="#000000" font-family="Helvetica" font-size="12px" text-anchor="middle" style="fill: light-dark(rgb(0, 0, 0), rgb(255, 255, 255));">Gateway API</text></switch></g></g></g></g><g data-cell-id="M7RFmJd14wfo8I6-3Kzt-3"><g data-cell-id="M7RFmJd14wfo8I6-3Kzt-4"><g transform="translate(0.5,0.5)"><rect x="880" y="110" width="295" height="310" rx="44.25" ry="44.25" fill-opacity="0.8" fill="#d5e8d4" stroke="#82b366" stroke-opacity="0.8" stroke-dasharray="3 3" pointer-events="all" style="fill: light-dark(rgb(213, 232, 212), rgb(31, 47, 30)); stroke: light-dark(rgb(130, 179, 102), rgb(68, 110, 44));"/></g></g><g data-cell-id="M7RFmJd14wfo8I6-3Kzt-5"><g transform="translate(0.5,0.5)"><path d="M 331.71 170.06 C 330.8 170.11 329.88 170.34 329.08 170.74 L 293.27 187.82 C 291.39 188.73 290.02 190.45 289.56 192.44 L 280.71 230.88 C 280.31 232.65 280.65 234.53 281.62 236.08 C 281.79 236.25 281.91 236.42 282.02 236.65 L 306.81 267.43 C 308.12 269.03 310.12 270 312.18 270 L 351.93 270 C 353.98 270 355.98 269.03 357.29 267.43 L 382.08 236.59 C 383.34 234.99 383.85 232.88 383.39 230.88 L 374.54 192.44 C 374.08 190.45 372.71 188.73 370.83 187.82 L 335.02 170.74 C 333.99 170.23 332.85 170 331.71 170.06 Z" fill="#ffffff" stroke="none" pointer-events="all" style="fill: light-dark(rgb(255, 255, 255), rgb(18, 18, 18));"/><path d="M 331.73 173.05 C 330.87 173.11 330.01 173.32 329.26 173.7 L 295.6 189.75 C 293.83 190.61 292.54 192.22 292.11 194.1 L 283.79 230.23 C 283.42 231.89 283.74 233.66 284.65 235.11 C 284.81 235.27 284.92 235.43 285.03 235.65 L 308.33 264.58 C 309.56 266.09 311.44 267 313.37 267 L 350.74 267 C 352.67 267 354.55 266.09 355.78 264.58 L 379.08 235.6 C 380.26 234.09 380.74 232.11 380.31 230.23 L 371.99 194.1 C 371.56 192.22 370.28 190.61 368.5 189.75 L 334.84 173.7 C 333.88 173.21 332.8 173 331.73 173.05 Z" fill="#2875e2" stroke="none" pointer-events="all" style="fill: light-dark(rgb(40, 117, 226), rgb(85, 151, 245));"/><path d="M 346.12 240.82 L 334.51 240.82 L 309.36 209.35 L 302.08 209.35 L 302.08 199.05 L 313.92 199.05 L 339.08 230.52 L 346.13 230.52 L 346.13 222.37 L 362.08 235.67 L 346.13 248.97 Z M 333.47 216.51 L 339.08 209.48 L 346.13 209.48 L 346.13 217.63 L 362.08 204.33 L 346.12 191.03 L 346.12 199.17 L 334.51 199.17 L 327.06 208.5 Z M 315.07 223.49 L 309.36 230.65 L 302.08 230.65 L 302.08 240.95 L 313.92 240.95 L 321.47 231.5 Z" fill="#ffffff" stroke="none" pointer-events="all" style="fill: light-dark(rgb(255, 255, 255), rgb(18, 18, 18));"/></g></g><g data-cell-id="M7RFmJd14wfo8I6-3Kzt-6"><g transform="translate(0.5,0.5)"><path d="M 111.71 170.06 C 110.8 170.11 109.89 170.34 109.09 170.74 L 73.28 187.82 C 71.39 188.73 70.02 190.45 69.57 192.44 L 60.71 230.88 C 60.31 232.65 60.66 234.53 61.63 236.08 C 61.8 236.25 61.91 236.42 62.03 236.65 L 86.81 267.43 C 88.13 269.03 90.13 270 92.18 270 L 131.93 270 C 133.99 270 135.99 269.03 137.3 267.43 L 162.09 236.59 C 163.34 234.99 163.86 232.88 163.4 230.88 L 154.55 192.44 C 154.09 190.45 152.72 188.73 150.83 187.82 L 115.03 170.74 C 114 170.23 112.86 170 111.71 170.06 Z" fill="#ffffff" stroke="none" pointer-events="all" style="fill: light-dark(rgb(255, 255, 255), rgb(18, 18, 18));"/><path d="M 111.74 173.05 C 110.88 173.11 110.02 173.32 109.27 173.7 L 75.61 189.75 C 73.84 190.61 72.55 192.22 72.12 194.1 L 63.8 230.23 C 63.42 231.89 63.74 233.66 64.66 235.11 C 64.82 235.27 64.92 235.43 65.03 235.65 L 88.33 264.58 C 89.56 266.09 91.44 267 93.38 267 L 130.74 267 C 132.67 267 134.55 266.09 135.79 264.58 L 159.08 235.6 C 160.27 234.09 160.75 232.11 160.32 230.23 L 152 194.1 C 151.57 192.22 150.28 190.61 148.51 189.75 L 114.85 173.7 C 113.88 173.21 112.81 173 111.74 173.05 Z" fill="#2875e2" stroke="none" pointer-events="all" style="fill: light-dark(rgb(40, 117, 226), rgb(85, 151, 245));"/><path d="M 99.34 197.61 L 99.34 208.91 L 110.62 208.91 L 110.62 208.91 L 110.58 208.91 L 110.58 218.54 L 90.14 218.54 C 89.33 218.55 88.68 219.2 88.68 220 L 88.68 231.08 L 91.61 231.08 L 91.61 221.47 L 110.66 221.47 L 110.66 231.08 L 113.59 231.08 L 113.59 221.47 L 132.56 221.47 L 132.56 231.08 L 135.49 231.08 L 135.49 220 C 135.49 219.61 135.34 219.24 135.06 218.97 C 134.78 218.69 134.41 218.54 134.02 218.54 L 113.55 218.54 L 113.55 208.91 L 124.83 208.91 L 124.83 197.61 Z M 82.09 231.09 L 82.09 242.39 L 98.17 242.39 L 98.17 231.09 Z M 104.04 231.09 L 104.04 242.39 L 120.13 242.39 L 120.13 231.09 Z M 126 231.09 L 126 242.39 L 142.09 242.39 L 142.09 231.09 Z" fill="#ffffff" stroke="none" pointer-events="all" style="fill: light-dark(rgb(255, 255, 255), rgb(18, 18, 18));"/></g></g><g data-cell-id="M7RFmJd14wfo8I6-3Kzt-7"><g transform="translate(0.5,0.5)"><path d="M 741.71 175.06 C 740.8 175.11 739.89 175.34 739.09 175.74 L 703.28 192.82 C 701.39 193.73 700.02 195.45 699.57 197.44 L 690.71 235.88 C 690.31 237.65 690.66 239.53 691.63 241.08 C 691.8 241.25 691.91 241.42 692.03 241.65 L 716.81 272.43 C 718.13 274.03 720.13 275 722.18 275 L 761.93 275 C 763.99 275 765.99 274.03 767.3 272.43 L 792.09 241.59 C 793.34 239.99 793.86 237.88 793.4 235.88 L 784.55 197.44 C 784.09 195.45 782.72 193.73 780.83 192.82 L 745.03 175.74 C 744 175.23 742.86 175 741.71 175.06 Z" fill="#ffffff" stroke="none" pointer-events="all" style="fill: light-dark(rgb(255, 255, 255), rgb(18, 18, 18));"/><path d="M 741.74 178.05 C 740.88 178.11 740.02 178.32 739.27 178.7 L 705.61 194.75 C 703.84 195.61 702.55 197.22 702.12 199.1 L 693.8 235.23 C 693.42 236.89 693.74 238.66 694.66 240.11 C 694.82 240.27 694.92 240.43 695.03 240.65 L 718.33 269.58 C 719.56 271.09 721.44 272 723.38 272 L 760.74 272 C 762.67 272 764.55 271.09 765.79 269.58 L 789.09 240.6 C 790.27 239.09 790.75 237.11 790.32 235.23 L 782 199.1 C 781.57 197.22 780.28 195.61 778.51 194.75 L 744.85 178.7 C 743.88 178.21 742.81 178 741.74 178.05 Z" fill="#2875e2" stroke="none" pointer-events="all" style="fill: light-dark(rgb(40, 117, 226), rgb(85, 151, 245));"/><path d="M 729.34 202.61 L 729.34 213.91 L 740.62 213.91 L 740.62 213.91 L 740.58 213.91 L 740.58 223.54 L 720.14 223.54 C 719.33 223.55 718.68 224.2 718.68 225 L 718.68 236.08 L 721.61 236.08 L 721.61 226.47 L 740.66 226.47 L 740.66 236.08 L 743.59 236.08 L 743.59 226.47 L 762.56 226.47 L 762.56 236.08 L 765.49 236.08 L 765.49 225 C 765.49 224.61 765.34 224.24 765.06 223.97 C 764.78 223.69 764.41 223.54 764.02 223.54 L 743.55 223.54 L 743.55 213.91 L 754.83 213.91 L 754.83 202.61 Z M 712.09 236.09 L 712.09 247.39 L 728.17 247.39 L 728.17 236.09 Z M 734.04 236.09 L 734.04 247.39 L 750.13 247.39 L 750.13 236.09 Z M 756 236.09 L 756 247.39 L 772.09 247.39 L 772.09 236.09 Z" fill="#ffffff" stroke="none" pointer-events="all" style="fill: light-dark(rgb(255, 255, 255), rgb(18, 18, 18));"/></g></g><g data-cell-id="M7RFmJd14wfo8I6-3Kzt-8"><g transform="translate(0.5,0.5)"><path d="M 981.71 170.06 C 980.8 170.11 979.89 170.34 979.09 170.74 L 943.28 187.82 C 941.39 188.73 940.02 190.45 939.57 192.44 L 930.71 230.88 C 930.31 232.65 930.66 234.53 931.63 236.08 C 931.8 236.25 931.91 236.42 932.03 236.65 L 956.81 267.43 C 958.13 269.03 960.13 270 962.18 270 L 1001.93 270 C 1003.99 270 1005.99 269.03 1007.3 267.43 L 1032.09 236.59 C 1033.34 234.99 1033.86 232.88 1033.4 230.88 L 1024.55 192.44 C 1024.09 190.45 1022.72 188.73 1020.83 187.82 L 985.03 170.74 C 984 170.23 982.86 170 981.71 170.06 Z" fill="#82b366" stroke="none" pointer-events="all" style="fill: light-dark(rgb(130, 179, 102), rgb(68, 110, 44));"/><path d="M 981.74 173.05 C 980.88 173.11 980.02 173.32 979.27 173.7 L 945.61 189.75 C 943.84 190.61 942.55 192.22 942.12 194.1 L 933.8 230.23 C 933.42 231.89 933.74 233.66 934.66 235.11 C 934.82 235.27 934.92 235.43 935.03 235.65 L 958.33 264.58 C 959.56 266.09 961.44 267 963.38 267 L 1000.74 267 C 1002.67 267 1004.55 266.09 1005.79 264.58 L 1029.09 235.6 C 1030.27 234.09 1030.75 232.11 1030.32 230.23 L 1022 194.1 C 1021.57 192.22 1020.28 190.61 1018.51 189.75 L 984.85 173.7 C 983.88 173.21 982.81 173 981.74 173.05 Z" fill="#d5e8d4" stroke="none" pointer-events="all" style="fill: light-dark(rgb(213, 232, 212), rgb(31, 47, 30));"/><path d="M 1012.09 202.31 L 1012.09 234.23 L 984.14 249.71 L 984 210.66 Z M 952.09 202.31 L 952.09 234.23 L 980.04 249.72 L 980.18 210.67 Z M 952.09 198.98 L 982.09 190.28 L 1012.09 198.98 L 982.09 207.68 Z" fill="#82b366" stroke="none" pointer-events="all" style="fill: light-dark(rgb(130, 179, 102), rgb(68, 110, 44));"/></g></g><g data-cell-id="M7RFmJd14wfo8I6-3Kzt-9"><g transform="translate(0.5,0.5)"><path d="M 164.17 220 L 222.1 220 L 269.6 220.31" fill="none" stroke="#6c8ebf" stroke-width="5" stroke-miterlimit="10" pointer-events="stroke" stroke-dasharray="8" style="stroke: light-dark(rgb(108, 142, 191), rgb(92, 121, 163)); animation: 500ms linear 0s infinite normal none running ge-flow-animation-1uCjGPJ9pVjDuUZfB8nE; stroke-dashoffset: 16;"/><path d="M 277.85 220.36 L 266.81 225.79 L 269.6 220.31 L 266.88 214.79 Z" fill="#6c8ebf" stroke="#6c8ebf" stroke-width="5" stroke-miterlimit="10" pointer-events="all" style="fill: light-dark(rgb(108, 142, 191), rgb(92, 121, 163)); stroke: light-dark(rgb(108, 142, 191), rgb(92, 121, 163));"/></g></g><g data-cell-id="M7RFmJd14wfo8I6-3Kzt-10"><g transform="translate(0.5,0.5)"><path d="M 384.16 220 L 430 220 L 496.16 220" fill="none" stroke="#6c8ebf" stroke-width="5" stroke-miterlimit="10" pointer-events="stroke" stroke-dasharray="8" style="stroke: light-dark(rgb(108, 142, 191), rgb(92, 121, 163)); animation: 500ms linear 0s infinite normal none running ge-flow-animation-1uCjGPJ9pVjDuUZfB8nE; stroke-dashoffset: 16;"/><path d="M 504.41 220 L 493.41 225.5 L 496.16 220 L 493.41 214.5 Z" fill="#6c8ebf" stroke="#6c8ebf" stroke-width="5" stroke-miterlimit="10" pointer-events="all" style="fill: light-dark(rgb(108, 142, 191), rgb(92, 121, 163)); stroke: light-dark(rgb(108, 142, 191), rgb(92, 121, 163));"/></g></g><g data-cell-id="M7RFmJd14wfo8I6-3Kzt-11"><g transform="translate(0.5,0.5)"><path d="M 794.17 219 L 923.35 219" fill="none" stroke="#6c8ebf" stroke-width="5" stroke-miterlimit="10" pointer-events="stroke" stroke-dasharray="8" style="stroke: light-dark(rgb(108, 142, 191), rgb(92, 121, 163)); animation: 500ms linear 0s infinite normal none running ge-flow-animation-1uCjGPJ9pVjDuUZfB8nE; stroke-dashoffset: 16;"/><path d="M 931.6 219 L 920.6 224.5 L 923.35 219 L 920.6 213.5 Z" fill="#6c8ebf" stroke="#6c8ebf" stroke-width="5" stroke-miterlimit="10" pointer-events="all" style="fill: light-dark(rgb(108, 142, 191), rgb(92, 121, 163)); stroke: light-dark(rgb(108, 142, 191), rgb(92, 121, 163));"/></g></g><g data-cell-id="M7RFmJd14wfo8I6-3Kzt-12"><g><rect x="20.63" y="292" width="182.91" height="30" fill="none" stroke="none" pointer-events="all"/></g><g><g><switch><foreignObject style="overflow: visible; text-align: left;" pointer-events="none" width="100%" height="100%" requiredFeatures="http://www.w3.org/TR/SVG11/feature#Extensibility"><div xmlns="http://www.w3.org/1999/xhtml" style="display: flex; align-items: unsafe center; justify-content: unsafe center; width: 181px; height: 1px; padding-top: 307px; margin-left: 22px;"><div style="box-sizing: border-box; font-size: 0; text-align: center; color: #000000; "><div style="display: inline-block; font-size: 12px; font-family: Helvetica; color: light-dark(#000000, #ffffff); line-height: 1.2; pointer-events: all; white-space: normal; word-wrap: normal; "><div><span style="color: light-dark(rgb(126, 166, 224), rgb(67, 102, 151)); font-size: 25px;">Service</span></div><span style="color: light-dark(rgb(126, 166, 224), rgb(67, 102, 151)); font-size: 25px;">Load Balancer</span></div></div></div></foreignObject><text x="112" y="311" fill="#000000" font-family="Helvetica" font-size="12px" text-anchor="middle" style="fill: light-dark(rgb(0, 0, 0), rgb(255, 255, 255));">ServiceLoad Balancer</text></switch></g></g></g><g data-cell-id="M7RFmJd14wfo8I6-3Kzt-13"><g><rect x="267.08" y="292" width="130" height="30" fill="none" stroke="none" pointer-events="all"/></g><g><g><switch><foreignObject style="overflow: visible; text-align: left;" pointer-events="none" width="100%" height="100%" requiredFeatures="http://www.w3.org/TR/SVG11/feature#Extensibility"><div xmlns="http://www.w3.org/1999/xhtml" style="display: flex; align-items: unsafe center; justify-content: unsafe center; width: 128px; height: 1px; padding-top: 307px; margin-left: 268px;"><div style="box-sizing: border-box; font-size: 0; text-align: center; color: #000000; "><div style="display: inline-block; font-size: 12px; font-family: Helvetica; color: light-dark(#000000, #ffffff); line-height: 1.2; pointer-events: all; white-space: normal; word-wrap: normal; "><span style="font-size: 25px; color: light-dark(rgb(126, 166, 224), rgb(67, 102, 151));">Gateway</span></div></div></div></foreignObject><text x="332" y="311" fill="#000000" font-family="Helvetica" font-size="12px" text-anchor="middle" style="fill: light-dark(rgb(0, 0, 0), rgb(255, 255, 255));">Gateway</text></switch></g></g></g><g data-cell-id="M7RFmJd14wfo8I6-3Kzt-14"><g><rect x="677.09" y="292" width="130" height="30" fill="none" stroke="none" pointer-events="all"/></g><g><g><switch><foreignObject style="overflow: visible; text-align: left;" pointer-events="none" width="100%" height="100%" requiredFeatures="http://www.w3.org/TR/SVG11/feature#Extensibility"><div xmlns="http://www.w3.org/1999/xhtml" style="display: flex; align-items: unsafe center; justify-content: unsafe center; width: 128px; height: 1px; padding-top: 307px; margin-left: 678px;"><div style="box-sizing: border-box; font-size: 0; text-align: center; color: #000000; "><div style="display: inline-block; font-size: 12px; font-family: Helvetica; color: light-dark(#000000, #ffffff); line-height: 1.2; pointer-events: all; white-space: normal; word-wrap: normal; "><span style="font-size: 25px; color: light-dark(rgb(126, 166, 224), rgb(67, 102, 151));">Service<br />Cluster IP</span></div></div></div></foreignObject><text x="742" y="304" fill="#000000" font-family="Helvetica" font-size="12px" text-anchor="middle" style="fill: light-dark(rgb(0, 0, 0), rgb(255, 255, 255));"><tspan x="742" y="304">Service</tspan><tspan x="742" y="318">Cluster IP</tspan></text></switch></g></g></g><g data-cell-id="M7RFmJd14wfo8I6-3Kzt-15"><g><rect x="917.09" y="292" width="130" height="30" fill="none" stroke="none" pointer-events="all"/></g><g><g><switch><foreignObject style="overflow: visible; text-align: left;" pointer-events="none" width="100%" height="100%" requiredFeatures="http://www.w3.org/TR/SVG11/feature#Extensibility"><div xmlns="http://www.w3.org/1999/xhtml" style="display: flex; align-items: unsafe center; justify-content: unsafe center; width: 128px; height: 1px; padding-top: 307px; margin-left: 918px;"><div style="box-sizing: border-box; font-size: 0; text-align: center; color: #000000; "><div style="display: inline-block; font-size: 12px; font-family: Helvetica; color: light-dark(#000000, #ffffff); line-height: 1.2; pointer-events: all; white-space: normal; word-wrap: normal; "><span style="font-size: 25px;"><span style="color: light-dark(rgb(151, 208, 119), rgb(41, 90, 13));">Pod</span></span></div></div></div></foreignObject><text x="982" y="311" fill="#000000" font-family="Helvetica" font-size="12px" text-anchor="middle" style="fill: light-dark(rgb(0, 0, 0), rgb(255, 255, 255));">Pod</text></switch></g></g></g><g data-cell-id="M7RFmJd14wfo8I6-3Kzt-16"><g transform="translate(0.5,0.5)"><path d="M 1164.82 97.03 C 1164.38 97.05 1163.94 97.16 1163.56 97.36 L 1146.37 105.55 C 1145.47 105.99 1144.81 106.81 1144.59 107.77 L 1140.34 126.22 C 1140.15 127.07 1140.31 127.98 1140.78 128.72 C 1140.86 128.8 1140.92 128.88 1140.97 128.99 L 1152.87 143.77 C 1153.5 144.53 1154.46 145 1155.45 145 L 1174.53 145 C 1175.51 145 1176.47 144.53 1177.1 143.77 L 1189 128.96 C 1189.6 128.2 1189.85 127.18 1189.63 126.22 L 1185.38 107.77 C 1185.16 106.81 1184.5 105.99 1183.6 105.55 L 1166.41 97.36 C 1165.92 97.11 1165.37 97 1164.82 97.03 Z" fill="#82b366" stroke="none" pointer-events="all" style="fill: light-dark(rgb(130, 179, 102), rgb(68, 110, 44));"/><path d="M 1164.83 98.47 C 1164.42 98.49 1164.01 98.59 1163.65 98.77 L 1147.49 106.48 C 1146.64 106.89 1146.02 107.66 1145.82 108.57 L 1141.82 125.91 C 1141.64 126.71 1141.8 127.56 1142.23 128.25 C 1142.31 128.33 1142.36 128.41 1142.41 128.51 L 1153.6 142.4 C 1154.19 143.12 1155.09 143.56 1156.02 143.56 L 1173.95 143.56 C 1174.88 143.56 1175.78 143.12 1176.38 142.4 L 1187.56 128.49 C 1188.13 127.76 1188.36 126.81 1188.15 125.91 L 1184.16 108.57 C 1183.95 107.66 1183.33 106.89 1182.48 106.48 L 1166.33 98.77 C 1165.86 98.54 1165.35 98.44 1164.83 98.47 Z" fill="#d5e8d4" stroke="none" pointer-events="all" style="fill: light-dark(rgb(213, 232, 212), rgb(31, 47, 30));"/><path d="M 1164.7 109.66 L 1164.07 109.68 C 1157.25 110.08 1152.04 115.91 1152.4 122.73 C 1152.76 129.55 1158.56 134.8 1165.39 134.48 L 1165.15 129.56 C 1161.03 129.76 1157.53 126.59 1157.31 122.47 C 1157.09 118.35 1160.24 114.83 1164.36 114.59 C 1168.37 114.35 1171.84 117.32 1172.25 121.28 L 1167.93 121.28 L 1171.83 130.83 L 1180.84 121.28 L 1176.96 121.28 L 1177.19 121.27 C 1176.76 114.67 1171.25 109.6 1164.7 109.66 Z" fill="#82b366" stroke="none" pointer-events="all" style="fill: light-dark(rgb(130, 179, 102), rgb(68, 110, 44));"/></g></g><g data-cell-id="M7RFmJd14wfo8I6-3Kzt-17"><g><rect x="1100" y="160" width="130" height="30" fill="none" stroke="none" pointer-events="all"/></g><g><g><switch><foreignObject style="overflow: visible; text-align: left;" pointer-events="none" width="100%" height="100%" requiredFeatures="http://www.w3.org/TR/SVG11/feature#Extensibility"><div xmlns="http://www.w3.org/1999/xhtml" style="display: flex; align-items: unsafe center; justify-content: unsafe center; width: 128px; height: 1px; padding-top: 175px; margin-left: 1101px;"><div style="box-sizing: border-box; font-size: 0; text-align: center; color: #000000; "><div style="display: inline-block; font-size: 12px; font-family: Helvetica; color: light-dark(#000000, #ffffff); line-height: 1.2; pointer-events: all; white-space: normal; word-wrap: normal; "><span style="font-size: 25px;"><span style="color: light-dark(rgb(151, 208, 119), rgb(41, 90, 13));">Deployment</span></span></div></div></div></foreignObject><text x="1165" y="179" fill="#000000" font-family="Helvetica" font-size="12px" text-anchor="middle" style="fill: light-dark(rgb(0, 0, 0), rgb(255, 255, 255));">Deployment</text></switch></g></g></g><g data-cell-id="M7RFmJd14wfo8I6-3Kzt-18"><g><rect x="1020" y="370" width="130" height="30" fill="none" stroke="none" pointer-events="all"/></g><g><g><switch><foreignObject style="overflow: visible; text-align: left;" pointer-events="none" width="100%" height="100%" requiredFeatures="http://www.w3.org/TR/SVG11/feature#Extensibility"><div xmlns="http://www.w3.org/1999/xhtml" style="display: flex; align-items: unsafe center; justify-content: unsafe center; width: 128px; height: 1px; padding-top: 385px; margin-left: 1021px;"><div style="box-sizing: border-box; font-size: 0; text-align: center; color: #000000; "><div style="display: inline-block; font-size: 12px; font-family: Helvetica; color: light-dark(#000000, #ffffff); line-height: 1.2; pointer-events: all; white-space: normal; word-wrap: normal; "><span style="font-size: 25px;"><span style="color: light-dark(rgb(151, 208, 119), rgb(41, 90, 13));">FrankenPHP</span></span></div></div></div></foreignObject><text x="1085" y="389" fill="#000000" font-family="Helvetica" font-size="12px" text-anchor="middle" style="fill: light-dark(rgb(0, 0, 0), rgb(255, 255, 255));">FrankenPHP</text></switch></g></g></g><g data-cell-id="M7RFmJd14wfo8I6-3Kzt-19"><g><image width="160" height="160" xlink:href="data:image/svg+xml" preserveAspectRatio="none" x="670" y="160"/></g></g></g></g></g></svg>